<svg xmlns="http://www.w3.org/2000/svg" viewBox="0 0 158.53226 158.53079">
  <defs>
    <style>
      .cls-1 {
        fill: #2a5f9e;
      }

      .cls-2 {
        fill: #fff;
      }

      .cls-3 {
        fill: #ed4c5c;
      }

      .cls-4 {
        fill: #d8a322;
      }
    </style>
  </defs>
  <g id="Layer_2" data-name="Layer 2">
    <g id="Flags">
      <g id="Australia">
        <path class="cls-1" d="M79.26686,0V79.26466H0A79.26613,79.26613,0,1,0,79.26686,0Z"/>
        <rect class="cls-1" x="26.42229" y="26.42082" width="55.4868" height="55.4868"/>
        <polygon class="cls-2" points="44.685 16.22 44.685 31.706 25.367 31.706 63.413 79.265 79.267 79.265 79.267 59.449 44.685 16.22"/>
        <path class="cls-2" d="M23.78006,44.684H7.95968A78.82317,78.82317,0,0,0,0,79.26466H31.706V31.47287H23.78006Z"/>
        <polygon class="cls-3" points="79.267 66.21 44.917 23.779 29.064 23.779 73.982 79.265 79.267 79.265 79.267 66.21"/>
        <path class="cls-2" d="M44.68475,7.95748V23.77933H23.78006V31.706h55.4868V0A78.86506,78.86506,0,0,0,44.68475,7.95748Z"/>
        <path class="cls-3" d="M79.26686,7.926H44.68475A79.56812,79.56812,0,0,0,7.92742,44.684V79.26466H23.78006V23.77933h55.4868Z"/>
        <path class="cls-4" d="M85.98094,84.14736l-.00587.01906Z"/>
        <path class="cls-4" d="M85.96994,84.17962l-.09824.20894Z"/>
        <path class="cls-4" d="M85.97507,84.16349l-.00513.01613Z"/>
        <polygon class="cls-2" points="35.128 88.875 38.048 100.435 48.912 95.509 41.692 105 52.317 110.424 40.392 110.702 42.775 122.386 35.128 113.236 27.48 122.386 29.866 110.702 17.942 110.424 28.565 105 21.345 95.509 32.205 100.435 35.128 88.875"/>
        <polygon class="cls-2" points="122.072 44.1 123.315 49.015 127.932 46.922 124.862 50.957 129.378 53.26 124.309 53.38 125.324 58.348 122.072 54.455 118.822 58.348 119.834 53.38 114.769 53.26 119.285 50.957 116.212 46.922 120.83 49.015 122.072 44.1"/>
        <polygon class="cls-2" points="144.046 64.287 145.287 69.199 149.903 67.106 146.835 71.143 151.351 73.449 146.28 73.563 147.295 78.534 144.046 74.641 140.794 78.534 141.809 73.563 136.738 73.449 141.254 71.143 138.186 67.106 142.803 69.199 144.046 64.287"/>
        <polygon class="cls-2" points="97.353 70.879 98.596 75.793 103.212 73.701 100.144 77.732 104.66 80.039 99.589 80.155 100.604 85.123 97.353 81.231 94.105 85.123 95.12 80.155 90.049 80.039 94.565 77.732 91.497 73.701 96.114 75.793 97.353 70.879"/>
        <polygon class="cls-2" points="122.072 110.018 123.315 114.929 127.932 112.839 124.862 116.869 129.378 119.176 124.309 119.294 125.324 124.259 122.072 120.375 118.822 124.259 119.834 119.294 114.769 119.176 119.285 116.869 116.212 112.839 120.83 114.929 122.072 110.018"/>
        <polygon class="cls-2" points="131.96 84.528 132.885 87.374 135.878 87.374 133.454 89.133 134.379 91.982 131.96 90.223 129.536 91.982 130.463 89.133 128.041 87.374 131.037 87.374 131.96 84.528"/>
      </g>
    </g>
  </g>
</svg>
