<svg xmlns="http://www.w3.org/2000/svg" viewBox="0 0 158.53226 158.53079">
  <defs>
    <style>
      .cls-1 {
        fill: #f9f9f9;
      }

      .cls-2 {
        fill: #ed4c5c;
      }
    </style>
  </defs>
  <g id="Layer_2" data-name="Layer 2">
    <g id="Flags">
      <g id="Canada">
        <path class="cls-1" d="M121.54032,12.23021a79.17756,79.17756,0,0,0-84.54912,0V146.305a79.20171,79.20171,0,0,0,84.54912,0Z"/>
        <path class="cls-2" d="M121.54032,12.23021V146.305a79.23909,79.23909,0,0,0,0-134.07478Z"/>
        <path class="cls-2" d="M36.9912,12.23021a79.23993,79.23993,0,0,0,0,134.07478Z"/>
        <path class="cls-2" d="M108.10044,78.08944a1.86353,1.86353,0,0,1-1.07625-2.20894l2.72288-9.58578-9.18035,1.90763c-.31672.04252-1.19429-.0264-1.64883-1.82258l-.81085-3.2632-6.36437,7.30278s-4.12244,4.46775-2.82625-2.35483l2.7654-14.577L86.566,56.02493c-.28959.1129-1.29765.25879-2.63489-2.2676l-4.66423-8.84017L74.59677,53.7544c-1.33651,2.52639-2.34237,2.38123-2.63416,2.26759l-5.1107-2.53665,2.76246,14.57624c1.29179,6.82258-2.82625,2.35484-2.82625,2.35484l-6.3673-7.30278L59.61,66.37683c-.45454,1.79912-1.32625,1.86511-1.64809,1.82258L48.783,66.29179l2.72068,9.58578a1.86466,1.86466,0,0,1-1.07332,2.20967l-2.8717,1.26027S58.08871,87.7544,61.53959,90.6217c.673.555,2.29839,2.17889,1.73827,3.92375l-1.23167,3.81232,14.41055-2.18842c.74121-.06011,2.31965.066,2.21921,2.39956l-.67082,15.04473h2.51833l-.67155-15.04253c-.09971-2.33284,1.48753-2.46187,2.21994-2.39882L96.48167,98.36l-1.23094-3.81232c-.56011-1.74413,1.06452-3.36876,1.73974-3.923,3.45235-2.87023,13.9824-11.27712,13.9824-11.27712Z"/>
      </g>
    </g>
  </g>
</svg>
