<svg xmlns="http://www.w3.org/2000/svg" viewBox="0 0 158.53226 158.53079">
  <defs>
    <style>
      .cls-1 {
        fill: #2a5f9e;
      }

      .cls-2 {
        fill: #ffce31;
      }
    </style>
  </defs>
  <g id="Layer_2" data-name="Layer 2">
    <g id="Flags">
      <g id="European_Union" data-name="European Union">
        <path class="cls-1" d="M79.26686,0A79.2654,79.2654,0,1,1,0,79.26466,79.2647,79.2647,0,0,1,79.26686,0Z"/>
        <polygon class="cls-2" points="79.272 25.896 81.166 31.722 87.291 31.722 82.337 35.323 84.225 41.149 79.272 37.548 74.312 41.149 76.206 35.323 71.251 31.722 77.377 31.722 79.272 25.896"/>
        <polygon class="cls-2" points="79.267 115.669 81.161 121.498 87.291 121.498 82.331 125.102 84.225 130.928 79.267 127.324 74.312 130.928 76.206 125.102 71.251 121.498 77.377 121.498 79.267 115.669"/>
        <polygon class="cls-2" points="101.513 108.414 103.407 114.246 109.536 114.246 104.578 117.847 106.473 123.672 101.513 120.07 96.559 123.672 98.455 117.847 93.496 114.246 99.622 114.246 101.513 108.414"/>
        <polygon class="cls-2" points="116.84 93.092 118.735 98.921 124.859 98.921 119.901 102.524 121.795 108.35 116.84 104.749 111.88 108.35 113.776 102.524 108.822 98.921 114.946 98.921 116.84 93.092"/>
        <polygon class="cls-2" points="124.091 70.781 125.985 76.609 132.11 76.609 127.155 80.211 129.047 86.037 124.091 82.435 119.135 86.037 121.025 80.211 116.073 76.609 122.196 76.609 124.091 70.781"/>
        <polygon class="cls-2" points="116.84 48.468 118.735 54.3 124.859 54.3 119.901 57.901 121.795 63.727 116.84 60.125 111.88 63.727 113.776 57.901 108.822 54.3 114.946 54.3 116.84 48.468"/>
        <polygon class="cls-2" points="101.513 33.148 103.407 38.977 109.536 38.977 104.578 42.578 106.473 48.405 101.513 44.804 96.559 48.405 98.451 42.578 93.495 38.977 99.622 38.977 101.513 33.148"/>
        <polygon class="cls-2" points="57.018 108.414 55.125 114.246 49 114.246 53.956 117.847 52.062 123.672 57.018 120.07 61.978 123.672 60.084 117.847 65.037 114.246 58.914 114.246 57.018 108.414"/>
        <polygon class="cls-2" points="41.697 93.092 39.801 98.921 33.678 98.921 38.635 102.524 36.741 108.35 41.697 104.749 46.652 108.35 44.76 102.524 49.716 98.921 43.591 98.921 41.697 93.092"/>
        <polygon class="cls-2" points="34.444 70.781 32.553 76.609 26.422 76.609 31.378 80.211 29.487 86.037 34.444 82.435 39.401 86.037 37.509 80.211 42.463 76.609 36.337 76.609 34.444 70.781"/>
        <polygon class="cls-2" points="41.697 48.468 39.801 54.3 33.678 54.3 38.635 57.901 36.741 63.727 41.697 60.125 46.652 63.727 44.76 57.901 49.716 54.3 43.591 54.3 41.697 48.468"/>
        <polygon class="cls-2" points="57.018 33.148 55.127 38.977 49 38.977 53.956 42.578 52.065 48.405 57.018 44.804 61.978 48.405 60.084 42.578 65.037 38.977 58.914 38.977 57.018 33.148"/>
      </g>
    </g>
  </g>
</svg>
