<svg xmlns="http://www.w3.org/2000/svg" viewBox="0 0 158.53226 158.53079">
  <defs>
    <style>
      .cls-1 {
        fill: #2a5f9e;
      }

      .cls-2 {
        fill: #fff;
      }

      .cls-3 {
        fill: #ed4c5c;
      }
    </style>
  </defs>
  <g id="Layer_2" data-name="Layer 2">
    <g id="Flags">
      <g id="Great_Britain" data-name="Great Britain">
        <path class="cls-1" d="M52.84457,154V117.49487L25.59531,137.57845A79.1947,79.1947,0,0,0,52.84457,154Z"/>
        <path class="cls-1" d="M105.68768,154a79.19852,79.19852,0,0,0,27.32258-16.48754L105.69282,117.437Z"/>
        <path class="cls-1" d="M4.53006,105.687a78.25455,78.25455,0,0,0,3.1217,7.56965L17.92742,105.687Z"/>
        <path class="cls-1" d="M140.59751,105.687l10.28445,7.57478a79.54019,79.54019,0,0,0,3.12317-7.57478Z"/>
        <path class="cls-2" d="M56.69428,95.118H1.59091A78.28606,78.28606,0,0,0,4.53006,105.687H17.92742L7.64956,113.2566a78.95192,78.95192,0,0,0,7.37463,12.41129L42.28079,105.687H52.84457v5.46921L21.912,133.93988c1.19209,1.25,2.41276,2.46774,3.68329,3.63857l27.24926-20.08358V154a78.549,78.549,0,0,0,10.56892,2.94062V95.118H56.69428Z"/>
        <path class="cls-2" d="M156.94062,95.118H95.12023v61.824a77.54908,77.54908,0,0,0,10.56745-2.94061l.00514-36.56159,27.31744,20.07478a79.24454,79.24454,0,0,0,9.94062-11.055L114.79765,105.687h17.89l16.0198,11.80792v.00586q1.14919-2.08175,2.17448-4.239L140.59751,105.687h13.40616A78.4984,78.4984,0,0,0,156.94062,95.118Z"/>
        <path class="cls-3" d="M15.11217,125.78592a79.02356,79.02356,0,0,0,6.73167,8.07772c.02346.02566.04619.05278.06818.07624l30.93255-22.78372V105.687H42.39663Z"/>
        <path class="cls-3" d="M114.83578,105.687,142.978,126.41789c.97873-1.32112,1.90982-2.67962,2.805-4.06159q.20674-.31671.404-.63343c.87757-1.382,1.72361-2.78812,2.51833-4.228L132.68768,105.687Z"/>
        <path class="cls-1" d="M105.68768,4.52566V41.033L132.937,20.94648A79.34053,79.34053,0,0,0,105.68768,4.52566Z"/>
        <path class="cls-1" d="M52.84457,4.52566A79.185,79.185,0,0,0,25.522,21.0132L52.83944,41.09091Z"/>
        <path class="cls-1" d="M154.00367,52.84311a79.22337,79.22337,0,0,0-3.12317-7.57258l-10.27933,7.57258Z"/>
        <path class="cls-1" d="M17.93622,52.84311,7.64956,45.26833a78.73823,78.73823,0,0,0-3.1195,7.57478Z"/>
        <path class="cls-2" d="M101.83578,63.412h55.10484a78.64259,78.64259,0,0,0-2.93695-10.56891h-13.4025L150.882,45.27053A79.24307,79.24307,0,0,0,143.50806,32.86L116.24927,52.84311H105.68768V47.37463l30.92889-22.78445c-1.18842-1.24927-2.41056-2.47-3.68182-3.63783L105.68768,41.03519V4.52566A78.65475,78.65475,0,0,0,95.12023,1.58724V63.412h6.71555Z"/>
        <path class="cls-2" d="M1.59091,63.412H63.41349V1.58724A78.11238,78.11238,0,0,0,52.84457,4.52566l-.00513,36.56525L25.522,21.0154a79.52,79.52,0,0,0-9.94134,11.05571L43.7324,52.84091H43.695l-17.85117.0022L9.82478,41.033v-.00293q-1.1492,2.08065-2.17522,4.23827l10.28666,7.57478H4.53006A77.89851,77.89851,0,0,0,1.59091,63.412Z"/>
        <path class="cls-3" d="M143.42155,32.7412a78.52968,78.52968,0,0,0-6.73533-8.077c-.02493-.02566-.04472-.05278-.066-.077L105.68768,47.3717v5.47141h10.44575Z"/>
        <path class="cls-3" d="M43.69648,52.84091,15.55572,32.11c-.98094,1.32112-1.91129,2.68182-2.80645,4.06452-.13783.20821-.27053.41935-.4047.6305-.87683,1.382-1.7214,2.78812-2.51832,4.228L25.84384,52.84311Z"/>
        <path class="cls-3" d="M156.94062,63.412H95.12023V1.58724a79.89291,79.89291,0,0,0-31.70674.00294V63.412H1.59091a79.781,79.781,0,0,0,0,31.706H63.41349v61.824a79.85695,79.85695,0,0,0,31.70674-.00146V95.118h61.82039a79.74518,79.74518,0,0,0,0-31.706Z"/>
      </g>
    </g>
  </g>
</svg>
