<svg xmlns="http://www.w3.org/2000/svg" viewBox="0 0 158.53226 158.53079">
  <defs>
    <style>
      .cls-1 {
        fill: #ed4c5c;
      }

      .cls-2 {
        fill: #fff;
      }

      .cls-3 {
        fill: #428bc1;
      }
    </style>
  </defs>
  <g id="Layer_2" data-name="Layer 2">
    <g id="Flags">
      <g id="United_States_of_America" data-name="United States of America">
        <path class="cls-1" d="M121.46554,12.17962A78.87287,78.87287,0,0,0,79.26686,0V12.17962Z"/>
        <path class="cls-2" d="M79.26686,24.3607H136.404a79.80155,79.80155,0,0,0-14.93842-12.18108H79.26686Z"/>
        <path class="cls-1" d="M79.26686,36.54106H146.0132A79.47729,79.47729,0,0,0,136.404,24.3607H79.26686Z"/>
        <path class="cls-2" d="M79.26686,48.71848H152.423a78.658,78.658,0,0,0-6.40982-12.18036H79.26686Z"/>
        <path class="cls-1" d="M79.26686,60.89956H156.3695A78.4083,78.4083,0,0,0,152.423,48.71848H79.26686Z"/>
        <path class="cls-2" d="M79.26686,73.07991h79A78.61277,78.61277,0,0,0,156.368,60.89956H79.26686Z"/>
        <path class="cls-1" d="M158.26686,73.07991h-79v6.18475H0c0,2.01906.09824,4.01686.24853,5.9978H158.283c.14516-1.98094.24927-3.97874.24927-5.9978C158.53226,77.18035,158.423,75.12463,158.26686,73.07991Z"/>
        <path class="cls-2" d="M2.1173,97.44135H156.40909a79.16236,79.16236,0,0,0,1.8739-12.17889H.24853A79.07016,79.07016,0,0,0,2.1173,97.44135Z"/>
        <path class="cls-1" d="M6.03519,109.61877H152.5a78.82553,78.82553,0,0,0,3.90909-12.17742H2.1173A78.14776,78.14776,0,0,0,6.03519,109.61877Z"/>
        <path class="cls-2" d="M12.39883,121.80132H146.1371A79.2213,79.2213,0,0,0,152.5,109.621H6.03519A78.77684,78.77684,0,0,0,12.39883,121.80132Z"/>
        <path class="cls-1" d="M21.94428,133.9824H136.58284a79.4589,79.4589,0,0,0,9.55279-12.18108H12.39883A80.0058,80.0058,0,0,0,21.94428,133.9824Z"/>
        <path class="cls-2" d="M36.77126,146.15982h84.9912a79.67612,79.67612,0,0,0,14.82038-12.17742H21.94428A79.57956,79.57956,0,0,0,36.77126,146.15982Z"/>
        <path class="cls-1" d="M79.26686,158.53079a78.86046,78.86046,0,0,0,42.4956-12.371H36.77126A78.84182,78.84182,0,0,0,79.26686,158.53079Z"/>
        <path class="cls-3" d="M37.06525,12.17962A79.0456,79.0456,0,0,0,.26466,73.08284C.10557,75.12463,0,77.18035,0,79.26466H79.26686V0A78.86787,78.86787,0,0,0,37.06525,12.17962Z"/>
        <polygon class="cls-2" points="60.771 2.641 62.021 6.558 66.056 6.558 62.789 9.147 64.037 13.147 60.771 10.772 57.505 13.211 58.753 9.136 55.486 6.558 59.521 6.558 60.771 2.641"/>
        <polygon class="cls-2" points="71.339 18.495 72.589 22.411 76.623 22.411 73.359 25 74.606 29 71.339 26.625 68.073 29.064 69.32 24.989 66.056 22.411 70.09 22.411 71.339 18.495"/>
        <polygon class="cls-2" points="50.202 18.495 51.452 22.411 55.486 22.411 52.22 25 53.468 29 50.202 26.625 46.936 29.064 48.184 24.989 44.917 22.411 48.952 22.411 50.202 18.495"/>
        <polygon class="cls-2" points="60.771 34.348 62.021 38.264 66.056 38.264 62.789 40.853 64.037 44.853 60.771 42.478 57.505 44.917 58.753 40.842 55.486 38.264 59.521 38.264 60.771 34.348"/>
        <polygon class="cls-2" points="39.633 34.348 40.883 38.264 44.917 38.264 41.652 40.853 42.902 44.853 39.633 42.478 36.367 44.917 37.618 40.842 34.35 38.264 38.386 38.264 39.633 34.348"/>
        <polygon class="cls-2" points="18.496 34.348 19.746 38.264 23.78 38.264 20.514 40.853 21.765 44.853 18.496 42.478 15.23 44.917 16.479 40.842 13.211 38.264 17.249 38.264 18.496 34.348"/>
        <polygon class="cls-2" points="71.339 50.202 72.589 54.117 76.623 54.117 73.359 56.706 74.606 60.707 71.339 58.331 68.073 60.77 69.32 56.695 66.056 54.117 70.09 54.117 71.339 50.202"/>
        <polygon class="cls-2" points="50.202 50.202 51.452 54.117 55.486 54.117 52.22 56.706 53.468 60.707 50.202 58.331 46.936 60.77 48.184 56.695 44.917 54.117 48.952 54.117 50.202 50.202"/>
        <polygon class="cls-2" points="29.064 50.202 30.314 54.117 34.35 54.117 31.083 56.706 32.332 60.707 29.064 58.331 25.799 60.77 27.048 56.695 23.78 54.117 27.818 54.117 29.064 50.202"/>
        <polygon class="cls-2" points="60.771 66.054 62.021 69.97 66.056 69.97 62.789 72.559 64.037 76.562 60.771 74.182 57.505 76.623 58.753 72.551 55.486 69.97 59.521 69.97 60.771 66.054"/>
        <polygon class="cls-2" points="39.633 66.054 40.883 69.97 44.917 69.97 41.652 72.559 42.902 76.562 39.633 74.182 36.367 76.623 37.618 72.551 34.35 69.97 38.386 69.97 39.633 66.054"/>
        <polygon class="cls-2" points="18.496 66.054 19.746 69.97 23.78 69.97 20.514 72.559 21.765 76.562 18.496 74.182 15.23 76.623 16.479 72.551 13.211 69.97 17.249 69.97 18.496 66.054"/>
        <path class="cls-2" d="M25.79912,29.06378l3.26466-2.43841L32.33065,29l-1.24927-4,3.26833-2.58944H30.31378l-1.25-3.91569-1.24926,3.91569h-3.7566c-.04326.04252-.08211.07918-.1239.1217l3.11143,2.45968Z"/>
        <path class="cls-2" d="M4.66056,60.76979l3.26686-2.43841,3.26466,2.37536L9.94282,56.706l3.26832-2.58944H9.17669l-1.24927-3.915-1.24927,3.915H4.099c-.1041.30352-.21114.60264-.31011.90689L5.912,56.695Z"/>
      </g>
    </g>
  </g>
</svg>
